<svg width="296.875" height="303.83878994485156" viewBox="0 0 296.875 303.83878994485156" class="css-1j8o68f">
    <defs id="SvgjsDefs1097"></defs>
    <g id="SvgjsG1098" featurekey="rootContainer" transform="matrix(2.870741128921509,0,0,2.870741128921509,-0.3588426380599834,0.11213832439374481)" fill="#590d82">
        <g xmlns="http://www.w3.org/2000/svg">
            <path d="M40.7 103.4a3 3 0 0 0-1.9-.4c.3.8-.2.8-.7.7s-1-.6-1.5 0 2 .4 3 .8a.9.9 0 0 0 1.1 0 3.7 3.7 0 0 0 0-1.1zM11.9 87c-.7-.2-1.1-.6-1.7-.8s-.5-.7-.8-1.1H9a2 2 0 0 0 1.1 1.6 4.7 4.7 0 0 0 1.5 1.8c0-.5 1.8-1.2.3-1.5zm3.5 4.5a2.4 2.4 0 0 1-1.1-1.1.2.2 0 0 0-.4 0l-.4.4 2.2 1.9V92zm-7.5-8.6h-.8l1.1 1.5a.8.8 0 0 0 .4-.7.3.3 0 0 0 .1-.4 1 1 0 0 0-.8-.4zm2.4-62.1c0-.4.1-.8-.6-.7h-.3L9 21.6c.7.2 1.1-.2 1.3-.8zm17.8 79.3v.7h.7c.2 0 .6-.1.5-.3s-.8-.4-1.2-.4z"></path>
            <path d="M103.4 57.2v-2.3c0-1.2.5-2.5-.4-3.7v-.4a6 6 0 0 0 0-4.2l-.2-1.4-.3-1.6v-.8c-.2-1 .1-2.1-1.1-2.7a.2.2 0 0 0 0-.2v-1.1a3.7 3.7 0 0 0-.8-1.9c-.2-.7-.2-1.4-.7-2v-.6l-.4-1.2c-.2-.5-.2-1.1-.7-1.5l-3-5.9h-.3V25l-1-.9c-1.1-1.7-2-3.6-3.4-5.1l-.4-.8-.8-.3-.7-.8-3.2-3.7h-.4c-.1-.3-.4-.3-.7-.3a4 4 0 0 0-2.7-1.9c-.3-1.4-1.5-1.7-2.6-2.2l-.3-.3a2.1 2.1 0 0 0-1.5-.8l-.4-.7h-.7l-3.5-2.1C72 5 71 4.1 69.8 3.7h-.7A1 1 0 0 0 68 3l-1.8-.5-1.5-.6-.8-.4h-.7l-1.5-.3a1.1 1.1 0 0 0-1.1.3c-.1-.7-.7-.7-1.2-.8h-.7l-1 .3c-.5-1.2-1.6-.5-2.4-.7L53.5 0h-.4c-1.1.1-2.3-.3-3.4.3h-4.5l-.4.4h-2.2l-1.9.3c-.8.2-1.6.1-2.3.7a3.7 3.7 0 0 1-2.6.1l-1.1.6h-.4l-.3.2a2 2 0 0 0-1.4.7h-.1l-.9.4h-.1c-.3-.1-.6.2-.9.1l-.3.4-.8.6c-.2-.3-.4-.2-.7-.2v.7a1.8 1.8 0 0 0-1.9.4h-.7l-1.2 1h.2l-.8.8H24a2.5 2.5 0 0 0-1.9 1.4c-.6.5-1.5.6-1.9 1.4h-.3v.4a2 2 0 0 0-1.6 1.1 2.3 2.3 0 0 0-1.1 1.2 1.7 1.7 0 0 0-1.5 1.1 4.5 4.5 0 0 0-1.9 1.9l-.3.4c.2.4.9.4 1.4.5a50.9 50.9 0 0 0 28.6 86.2.8.8 0 0 0 .7.3h.7a51.3 51.3 0 0 0 6 .4h.8a1.4 1.4 0 0 1 .1.6c-1.5.9-3.1-1.4-4.6.1.3.3.8.3.8.9l4.8.4H54a2 2 0 0 1 0-.3 3.4 3.4 0 0 0 1.8-.5c.6-.1 1.2 1 1.7-.1.9 0 1.9.4 2.6-.7h.1c.9 0 1.9.6 2.6-.4l2.6-.3.4.2 2.3-1.3h1c.6.2 1-.2 1.3-.7s2.1-1 3.3-1a3 3 0 0 0 2.7-1.2l2.6-1.7c.7.1.9-.7 1.4-.8s.9-.8 1.5-1.1l.3-.3h.1c.4.1.6-.2.7-.5l.4-.4 2.3-2.6 1.1-1.1.7-.4c.6.1.7-.6 1.1-.8l.9-1.1.6-.4a1.9 1.9 0 0 0 1.3-1.3v-.2a1.8 1.8 0 0 0 .5-.7h.2a1.5 1.5 0 0 0 .5-.5c-.1-.9 1.1-1.1 1.1-2l.9-1.4a1.9 1.9 0 0 0 1.2-1.7c.2-.5.8-.7.6-1.4l.8-.8v-.9c.3 0 .5-.3.7-.5l.4-.7.7-1.6.4-1 .8-1.8.3-.4.2-1.1.5-1.4a1.2 1.2 0 0 0 .3-1.2c.5-.2.3-.7.5-1.1a.5.5 0 0 1 0-.4V65c.5-.5.4-1.1.4-1.7v-.5c.6-.9.2-2.1.6-3s-.3-.6.1-.8h.3v-1h-.1zm-2.9-19.5zM82.2 11.9zM65.8 3zm0 0zM56.4.8zm.1 103zm39.9-24.9zM102 62z"></path>
        </g>
    </g>
    <g id="SvgjsG1099" featurekey="symbolFeature-0" transform="matrix(1.782000002861023,0,0,1.782000002861023,75,64)" fill="#ffffff">
        <path xmlns="http://www.w3.org/2000/svg" fill="#ffffff" d="M65.156,63.339c-3.578,0-6.906,1.041-9.728,2.814l-8.994-4.319h5.621l17.753-39.646L70.104,0L43.773,45.267  h-1.776L14.482,0l-0.887,2.366v19.527l17.456,37.574l4.734,2.072l-6.804,4.438l-0.512,0.407l0.036,0.041  c-2.911-1.947-6.409-3.086-10.175-3.086C8.205,63.339,0,71.547,0,81.67C0,91.795,8.205,100,18.329,100s18.33-8.204,18.33-18.329  c0-3.04-0.751-5.899-2.061-8.424l6.661-6.53l7.917,5.993c-1.49,2.65-2.349,5.704-2.349,8.961c0,10.125,8.206,18.329,18.33,18.329  s18.331-8.204,18.331-18.329C83.487,71.547,75.28,63.339,65.156,63.339z M18.327,90.534c-4.885,0-8.858-3.976-8.858-8.861  c0-4.889,3.974-8.861,8.858-8.861c4.888,0,8.863,3.973,8.863,8.861C27.19,86.558,23.215,90.534,18.327,90.534z M42.293,61.244  c-2.938,0-5.324-2.386-5.324-5.325s2.385-5.325,5.324-5.325c2.94,0,5.325,2.386,5.325,5.325S45.233,61.244,42.293,61.244z   M65.156,90.534c-4.884,0-8.856-3.976-8.858-8.861c0-4.889,3.975-8.861,8.858-8.861c4.885,0,8.862,3.973,8.862,8.861  C74.019,86.558,70.041,90.534,65.156,90.534z"></path>
    </g>
</svg>
